<?xml version="1.0" standalone="no"?>
<!DOCTYPE svg PUBLIC "-//W3C//DTD SVG 20010904//EN"
 "http://www.w3.org/TR/2001/REC-SVG-20010904/DTD/svg10.dtd">
<svg version="1.0" xmlns="http://www.w3.org/2000/svg"
 width="590.000000pt" height="567.000000pt" viewBox="0 0 590.000000 567.000000"
 preserveAspectRatio="xMidYMid meet">

<g transform="translate(0.000000,567.000000) scale(0.100000,-0.100000)"
fill="#000000" stroke="none">
<path d="M2665 5589 c-353 -77 -616 -182 -870 -349 -383 -252 -699 -608 -862
-972 -105 -236 -157 -450 -179 -736 -11 -146 25 -212 125 -228 37 -6 45 -3 72
22 66 62 72 77 80 208 10 172 62 441 105 546 56 136 133 279 197 365 128 173
305 353 482 492 218 170 499 303 749 353 56 11 127 25 158 31 32 7 65 17 73
23 24 18 38 119 25 179 -6 28 -15 57 -22 64 -12 15 -72 16 -133 2z"/>
<path d="M3096 5559 c-34 -41 -36 -115 -3 -179 l22 -45 100 -23 c169 -39 404
-120 525 -180 205 -102 440 -273 540 -392 48 -57 51 -56 -79 -39 -102 13 -131
5 -161 -43 -25 -42 -25 -94 0 -136 38 -62 92 -83 375 -146 88 -20 188 -43 222
-52 74 -20 105 -14 123 23 28 60 41 577 16 636 -16 39 -63 57 -144 57 -46 0
-53 -3 -65 -27 -8 -16 -17 -46 -21 -68 -17 -104 -4 -106 -140 30 -131 130
-247 228 -324 271 -26 15 -74 44 -108 65 -213 131 -638 279 -803 279 -43 0
-53 -4 -75 -31z"/>
<path d="M2851 4994 c-30 -8 -77 -27 -105 -42 -65 -34 -175 -144 -204 -203
-25 -53 -47 -151 -39 -173 9 -22 83 -39 154 -34 69 4 95 21 140 91 28 45 69
72 135 87 43 11 52 10 94 -10 78 -38 124 -139 94 -209 -13 -33 -66 -72 -123
-90 -47 -16 -153 -86 -163 -109 -12 -27 -17 -283 -6 -329 7 -30 6 -45 -2 -52
-6 -5 -67 -34 -136 -64 -69 -30 -179 -80 -245 -110 -121 -55 -1176 -561 -1250
-599 -149 -78 -222 -200 -194 -327 14 -69 61 -121 143 -161 l63 -31 1677 0
c1035 0 1674 -4 1671 -10 -4 -5 5 -9 19 -9 14 0 27 4 30 9 3 5 24 7 46 6 30
-2 47 3 67 21 15 12 31 20 36 17 6 -3 7 -2 4 4 -4 5 7 23 24 39 55 52 83 112
83 179 1 53 -3 66 -38 118 -62 93 -115 132 -306 224 -96 47 -305 149 -465 228
-293 145 -497 243 -570 273 -22 9 -121 56 -220 103 l-180 86 3 84 c3 63 8 91
23 111 10 15 19 30 19 34 0 4 34 39 75 77 42 38 87 90 101 116 14 25 39 67 56
93 37 57 45 116 28 201 -18 89 -57 163 -122 232 -114 122 -267 170 -417 129z
m221 -1390 c57 -25 121 -55 143 -66 22 -11 60 -28 85 -38 86 -34 557 -260 651
-311 52 -29 148 -78 214 -109 168 -79 282 -138 289 -149 11 -17 -401 -21
-1664 -17 -801 2 -1278 8 -1300 14 l-35 10 30 1 c17 1 48 15 70 31 22 17 72
45 110 64 136 65 281 137 375 186 52 27 109 55 125 62 17 6 86 38 155 71 69
33 143 68 165 78 22 10 47 23 55 28 8 6 53 26 99 46 47 19 87 39 90 43 4 4 45
23 93 41 49 19 93 40 99 47 18 22 42 17 151 -32z"/>
<path d="M4845 3939 c-21 -19 -35 -40 -35 -54 0 -13 11 -80 25 -149 16 -80 25
-156 24 -211 -1 -74 2 -91 25 -129 30 -51 107 -106 149 -106 41 0 101 62 117
120 16 56 1 205 -36 359 -41 176 -63 201 -173 201 -53 0 -64 -4 -96 -31z"/>
<path d="M4985 2415 c-128 -45 -152 -227 -40 -304 55 -37 103 -44 165 -21 93
34 140 103 124 185 -8 42 -57 111 -93 129 -43 22 -112 27 -156 11z m114 -49
c45 -16 72 -53 78 -107 4 -34 1 -50 -14 -68 -25 -31 -40 -21 -54 35 -10 37
-15 44 -35 44 -25 0 -32 14 -14 25 6 4 17 1 25 -5 21 -18 47 -4 43 22 -2 17
-12 24 -38 29 -19 4 -44 10 -56 14 -33 10 -44 -15 -47 -108 -2 -93 -9 -111
-32 -81 -20 27 -28 94 -15 129 29 76 81 99 159 71z m-1 -223 c-6 -7 -28 -13
-50 -13 -35 0 -38 2 -28 19 5 11 10 31 10 46 l0 26 39 -33 c29 -24 37 -36 29
-45z"/>
<path d="M1288 2397 c-53 -17 -128 -73 -128 -96 0 -50 51 -130 167 -263 95
-108 161 -168 324 -295 130 -100 139 -106 294 -189 151 -80 250 -124 380 -167
118 -39 401 -91 551 -102 180 -13 472 34 739 120 77 25 146 45 153 45 6 0 12
5 12 11 0 6 7 9 15 5 8 -3 15 -1 15 5 0 6 5 7 10 4 6 -3 10 -1 10 4 0 6 3 10
8 9 4 -1 26 10 50 25 23 15 47 25 52 22 6 -4 13 0 16 9 3 8 19 18 35 21 16 4
39 15 52 26 12 10 60 44 107 75 47 31 105 72 130 92 62 50 229 222 297 307 31
39 71 86 89 105 49 53 65 88 52 116 -25 55 -165 118 -212 96 -13 -6 -50 -44
-82 -84 -165 -207 -432 -424 -654 -532 -207 -101 -428 -162 -677 -187 -134
-14 -352 -2 -507 27 -266 50 -576 197 -811 383 -100 79 -251 232 -326 331 -71
93 -87 101 -161 77z"/>
<path d="M1992 880 c-51 -22 -115 -75 -142 -117 -98 -154 3 -312 219 -343 37
-5 77 -13 87 -16 62 -22 73 -79 22 -116 -47 -33 -123 -31 -205 6 l-62 28 -50
-42 c-28 -24 -51 -51 -51 -60 0 -20 94 -85 152 -106 48 -17 204 -19 245 -3 40
15 142 117 164 164 44 94 4 207 -91 255 -20 10 -81 30 -135 44 -54 14 -110 33
-124 44 -39 29 -34 62 14 89 58 33 105 30 180 -12 l62 -35 49 33 c27 19 51 42
52 51 5 23 -63 87 -123 116 -37 18 -69 24 -144 27 -53 1 -106 -1 -119 -7z"/>
<path d="M2636 863 c-3 -16 -8 -58 -12 -95 l-6 -68 115 0 115 0 6 -31 c3 -17
6 -152 6 -300 l0 -269 80 0 80 0 2 183 c2 100 1 235 0 301 l-4 118 122 -3 122
-4 -6 35 c-3 19 -6 60 -6 91 l0 56 -297 2 c-163 1 -300 4 -304 7 -4 2 -10 -8
-13 -23z"/>
<path d="M65 492 l0 -383 82 -5 c82 -5 82 -5 89 22 4 15 4 66 1 115 l-6 89 55
0 54 0 38 -56 c20 -31 53 -82 73 -113 l36 -56 94 4 c52 2 96 5 97 6 5 4 -81
127 -119 172 -41 48 -45 72 -17 91 69 49 128 148 127 217 -1 113 -80 209 -210
254 -42 15 -90 20 -224 23 l-170 3 0 -383z m370 184 c13 -9 32 -30 41 -47 15
-29 15 -34 -1 -70 -27 -59 -50 -69 -156 -69 l-92 0 7 46 c3 26 6 74 6 107 l0
60 85 -5 c54 -4 94 -12 110 -22z"/>
<path d="M975 865 c-2 -5 -6 -181 -9 -389 l-6 -379 98 6 c53 4 179 7 280 7
l182 0 0 84 0 84 -152 5 c-84 4 -168 5 -185 4 -18 -1 -33 1 -33 6 0 4 0 35 0
68 l0 62 155 -5 156 -5 -3 71 -3 71 -157 3 -158 3 0 67 0 68 183 3 c100 1 184
4 186 6 2 2 0 43 -4 90 l-7 87 -260 -4 c-162 -2 -262 -7 -263 -13z"/>
<path d="M3445 855 c8 -11 37 -57 65 -102 28 -46 55 -85 59 -88 5 -2 28 -37
51 -77 24 -40 58 -96 76 -124 l34 -50 0 -130 c0 -183 -4 -174 93 -174 l80 0
-9 98 c-14 156 -11 205 13 229 12 12 31 49 44 83 12 33 29 66 39 73 9 7 51 65
94 130 43 64 82 117 87 117 5 0 9 4 9 9 0 10 -176 34 -190 26 -4 -3 -22 -29
-39 -58 -18 -28 -56 -88 -86 -132 -30 -44 -55 -86 -55 -92 0 -33 -22 -6 -58
70 -22 45 -62 111 -89 147 l-50 65 -91 0 c-89 0 -91 0 -77 -20z"/>
<path d="M4470 494 l0 -384 256 0 257 0 -7 38 c-3 20 -6 63 -6 95 l0 57 -159
0 -158 0 -5 276 c-3 151 -9 279 -14 283 -5 5 -44 11 -86 14 l-78 5 0 -384z"/>
<path d="M5267 493 c3 -214 6 -388 7 -388 0 0 124 1 274 3 l272 3 0 85 0 84
-112 2 c-62 1 -148 0 -190 -1 l-78 -3 0 65 c0 58 2 65 21 70 12 3 89 5 172 5
l151 -1 -1 61 c-1 34 -2 67 -2 73 -1 7 -25 10 -68 8 -38 -2 -114 -2 -170 -1
l-103 2 0 69 0 68 183 7 c100 4 186 11 190 15 4 4 7 41 5 82 l-3 74 -277 3
-277 2 6 -387z"/>
</g>
</svg>
